<svg width="100px" height="100px" viewBox="0 0 100 100" fill="none" xmlns="http://www.w3.org/2000/svg">
<path d="M50 34.106C35.424 34.106 23.606 29.988 23.606 24.553V75.447C23.606 80.676 35.218 84.918 49.629 85H50C64.576 85 76.394 80.882 76.394 75.447V24.553C76.394 29.865 64.576 34.106 50 34.106Z" fill="url(#paint0_linear)"/>
<path d="M76.394 24.553C76.394 29.865 64.576 34.106 50 34.106C35.424 34.106 23.606 29.988 23.606 24.553C23.606 19.118 35.424 15 50 15C64.576 15 76.394 19.118 76.394 24.553Z" fill="#E8E8E8"/>
<path d="M70.259 23.771C70.259 27.147 61.159 29.865 50 29.865C38.841 29.865 29.741 27.147 29.741 23.771C29.741 20.395 38.841 17.718 50 17.718C61.159 17.718 70.259 20.435 70.259 23.771Z" fill="#50E6FF"/>
<path d="M49.9999 25.294C44.5657 25.1551 39.1479 25.9489 33.9819 27.641C39.1528 29.3017 44.5722 30.0542 49.9999 29.865C55.4386 30.0239 60.8623 29.215 66.0179 27.476C60.8371 25.8627 55.4235 25.1253 49.9999 25.294V25.294Z" fill="#198AB3"/>
<defs>
<linearGradient id="paint0_linear" x1="23.606" y1="54.776" x2="76.394" y2="54.776" gradientUnits="userSpaceOnUse">
<stop stop-color="#005BA1"/>
<stop offset="0.07" stop-color="#0060A9"/>
<stop offset="0.36" stop-color="#0071C8"/>
<stop offset="0.52" stop-color="#0078D4"/>
<stop offset="0.64" stop-color="#0074CD"/>
<stop offset="0.82" stop-color="#006ABB"/>
<stop offset="1" stop-color="#005BA1"/>
</linearGradient>
</defs>
</svg>
