<svg width="16" height="16" viewBox="0 0 16 16" fill="none" xmlns="http://www.w3.org/2000/svg">
<path d="M11.2838 11.751C11.8635 11.7502 12.4415 11.6875 13.0078 11.564C13.5751 11.4437 14.1183 11.2295 14.6148 10.93C14.761 10.8405 14.9019 10.7427 15.0368 10.637C15.1752 10.5306 15.301 10.4088 15.4118 10.274C15.52 10.1437 15.6108 9.99979 15.6818 9.846C15.7531 9.68904 15.7893 9.5184 15.7878 9.346C15.7888 9.22145 15.7729 9.09734 15.7408 8.977C15.7063 8.85697 15.659 8.74097 15.5998 8.631L11.2838 0L6.95583 8.644C6.90183 8.75285 6.85862 8.86672 6.82683 8.984C6.79548 9.10245 6.77968 9.22447 6.77983 9.347C6.77834 9.5194 6.81451 9.69004 6.88583 9.847C6.95686 10.0008 7.04762 10.1447 7.15583 10.275C7.26669 10.4098 7.3925 10.5316 7.53083 10.638C7.66593 10.7435 7.80681 10.8413 7.95283 10.931C8.4494 11.2305 8.99256 11.4447 9.55983 11.565C10.1262 11.6882 10.7042 11.7505 11.2838 11.751Z" fill="url(#paint0_linear)"/>
<path d="M6.61485 1.52889L5.13685 0.0908889C4.97485 -0.0711111 4.83685 -0.00911114 4.83685 0.235889V0.882889C4.83685 0.930097 4.81809 0.975372 4.78471 1.00875C4.75133 1.04214 4.70606 1.06089 4.65885 1.06089H4.65185C3.69885 1.06089 1.04085 1.31089 0.943848 4.94589C0.943848 4.99522 0.963444 5.04253 0.998326 5.07741C1.03321 5.11229 1.08052 5.13189 1.12985 5.13189H2.07485C2.09923 5.13202 2.12339 5.12733 2.14595 5.11809C2.16851 5.10886 2.18902 5.09525 2.20631 5.07806C2.22359 5.06087 2.23731 5.04043 2.24667 5.01792C2.25603 4.99541 2.26085 4.97127 2.26085 4.94689V4.92989C2.18577 4.58428 2.19398 4.22577 2.28478 3.88396C2.37559 3.54214 2.54639 3.22683 2.78309 2.96405C3.01979 2.70126 3.3156 2.49855 3.6461 2.37263C3.97659 2.24672 4.3323 2.20122 4.68385 2.23989C4.73318 2.23989 4.78049 2.25949 4.81537 2.29437C4.85025 2.32925 4.86985 2.37656 4.86985 2.42589V3.02589C4.86985 3.32589 4.96985 3.37289 5.16985 3.17089L6.61485 1.83589C6.63508 1.82223 6.65241 1.8047 6.66583 1.78431C6.67925 1.76392 6.68851 1.74107 6.69307 1.71709C6.69762 1.69311 6.69738 1.66846 6.69237 1.64457C6.68736 1.62068 6.67766 1.59802 6.66385 1.57789C6.65066 1.55869 6.63405 1.54208 6.61485 1.52889Z" fill="#BABABA"/>
<path d="M9.12892 8.198V13.385L4.66992 16V10.799L9.12892 8.198Z" fill="#0378D2"/>
<path d="M9.12891 8.1979L4.66991 10.8139L0.211914 8.1979L4.66991 5.5979L9.12891 8.1979Z" fill="#82B7F7"/>
<path d="M4.66991 10.814V16L0.211914 13.385V8.198L4.66991 10.814Z" fill="#5E9EEE"/>
<path opacity="0.2" d="M0.211914 13.3851L4.66991 10.7991V16.0001L0.211914 13.3851Z" fill="#82B7F7"/>
<path opacity="0.2" d="M9.12892 13.3851L4.66992 10.7991V16.0001L9.12892 13.3851Z" fill="#5E9EEE"/>
<defs>
<linearGradient id="paint0_linear" x1="11.2838" y1="11.751" x2="11.2838" y2="0" gradientUnits="userSpaceOnUse">
<stop stop-color="#32BEDD"/>
<stop offset="0.532" stop-color="#50E6FF"/>
<stop offset="1" stop-color="#9CEBFF"/>
</linearGradient>
</defs>
</svg>
