<svg width="16" height="16" viewBox="0 0 16 16" fill="none" xmlns="http://www.w3.org/2000/svg">
<g clip-path="url(#clip0)">
<path d="M14.6361 8.03808C14.6221 8.00808 14.6161 7.99408 14.6081 7.98008C14.4081 7.59808 14.2081 7.21708 14.0081 6.83708C13.9979 6.82292 13.9933 6.80551 13.9951 6.78818C13.997 6.77084 14.0051 6.75479 14.0181 6.74308C14.3367 6.37108 14.6547 5.99775 14.9721 5.62308C14.9861 5.6095 14.9958 5.59212 15.0001 5.57308L14.7231 5.64608L13.5691 5.95308C13.5559 5.95814 13.5413 5.95796 13.5283 5.95256C13.5152 5.94716 13.5048 5.93697 13.4991 5.92408C13.2791 5.55808 13.0591 5.19308 12.8391 4.82908C12.8281 4.80745 12.8115 4.78915 12.7911 4.77608L12.7381 5.06708L12.5501 6.10008C12.5418 6.13672 12.5354 6.17378 12.5311 6.21108C12.5311 6.24908 12.5091 6.26008 12.4771 6.27008L11.1171 6.70008C11.0944 6.70656 11.0735 6.7182 11.0561 6.73408L12.1751 7.17908L12.1421 7.20508L11.4421 7.65608C11.4305 7.66508 11.4166 7.67045 11.402 7.67152C11.3874 7.67259 11.3728 7.6693 11.3601 7.66208L10.5271 7.29108C10.402 7.23897 10.291 7.15812 10.2031 7.05508C10.1554 7.0077 10.1195 6.9498 10.0982 6.88603C10.077 6.82226 10.071 6.75439 10.0807 6.68788C10.0904 6.62137 10.1156 6.55807 10.1542 6.50305C10.1928 6.44803 10.2438 6.40283 10.3031 6.37108C10.3911 6.31698 10.4855 6.27399 10.5841 6.24308C11.0291 6.09808 11.4751 5.95908 11.9211 5.81908C11.9376 5.81604 11.9526 5.80762 11.9638 5.79514C11.975 5.78266 11.9818 5.76681 11.9831 5.75008C12.0431 5.40608 12.1041 5.06242 12.1661 4.71908C12.1844 4.53247 12.2319 4.3499 12.3071 4.17808C12.3404 4.11227 12.3817 4.05081 12.4301 3.99508C12.4664 3.94948 12.5123 3.91238 12.5645 3.88639C12.6168 3.8604 12.674 3.84614 12.7323 3.84462C12.7906 3.84309 12.8486 3.85434 12.9021 3.87757C12.9556 3.9008 13.0034 3.93544 13.0421 3.97908C13.1053 4.04369 13.1607 4.11552 13.2071 4.19308C13.4131 4.52642 13.6167 4.86442 13.8181 5.20708C13.8243 5.22337 13.8368 5.2365 13.8527 5.24363C13.8686 5.25075 13.8867 5.25127 13.9031 5.24508C14.4011 5.11175 14.8991 4.97842 15.3971 4.84508C15.4984 4.81598 15.6051 4.81017 15.7091 4.82808C15.7587 4.83209 15.8067 4.84813 15.8488 4.87482C15.8908 4.9015 15.9258 4.93803 15.9506 4.98125C15.9754 5.02447 15.9893 5.07308 15.9912 5.12288C15.993 5.17267 15.9826 5.22217 15.9611 5.26708C15.9232 5.36589 15.8672 5.45677 15.7961 5.53508L14.7661 6.75908C14.7531 6.7708 14.745 6.78694 14.7433 6.80434C14.7417 6.82173 14.7466 6.83912 14.7571 6.85308C14.9651 7.24508 15.1721 7.63775 15.3781 8.03108C15.4311 8.12254 15.4613 8.22546 15.4661 8.33108C15.467 8.44902 15.4247 8.56321 15.3471 8.65204C15.2695 8.74086 15.162 8.79816 15.0451 8.81308C14.9128 8.82726 14.779 8.81084 14.6541 8.76508C14.3421 8.66842 14.0294 8.57308 13.7161 8.47908C13.7038 8.47721 13.6925 8.47108 13.6843 8.46175C13.6761 8.45243 13.6714 8.44051 13.6711 8.42808C13.6351 8.20808 13.5961 7.98908 13.5581 7.76908C13.5571 7.76044 13.5571 7.75172 13.5581 7.74308L14.6341 8.04308" fill="#E25A1C"/>
<path d="M14.029 11.2431H13.185C13.1693 11.2443 13.1536 11.2412 13.1396 11.2339C13.1256 11.2267 13.114 11.2156 13.106 11.2021C12.7727 10.6941 12.4393 10.1871 12.106 9.68108L12.065 9.62208L11.852 11.2411H11.115C11.124 11.1691 11.131 11.1001 11.141 11.0301L11.357 9.38108C11.4237 8.85708 11.4923 8.33241 11.563 7.80708C11.566 7.78996 11.5748 7.77441 11.588 7.76308L12.351 7.26308L12.372 7.25708L12.143 9.00808L12.152 9.01408L13.36 7.67908C13.372 7.74708 13.382 7.80508 13.392 7.86408C13.42 8.02908 13.448 8.19808 13.479 8.36408C13.4822 8.37822 13.4815 8.39297 13.4769 8.40673C13.4724 8.42049 13.4641 8.43272 13.453 8.44208C13.195 8.71208 12.9377 8.98275 12.681 9.25408L12.646 9.29208C12.6532 9.30492 12.6612 9.31728 12.67 9.32908L14 11.2001C14.0089 11.2108 14.0186 11.2208 14.029 11.2301V11.2401" fill="#3C3A3E"/>
<path d="M5.29999 9.62306C5.29001 9.54879 5.27497 9.47529 5.25499 9.40306C5.19499 9.21811 5.06637 9.06318 4.89561 8.97017C4.72484 8.87717 4.52493 8.85315 4.33699 8.90306C4.12368 8.9482 3.93039 9.06038 3.78538 9.22321C3.64037 9.38603 3.55123 9.59097 3.53099 9.80806C3.51128 9.97304 3.54812 10.1398 3.63549 10.2811C3.72286 10.4225 3.8556 10.53 4.01199 10.5861C4.13796 10.6319 4.27284 10.6481 4.40608 10.6331C4.53931 10.6182 4.66729 10.5727 4.77999 10.5001C4.93552 10.4118 5.0653 10.2845 5.15651 10.1306C5.24771 9.97683 5.29717 9.80187 5.29999 9.62306ZM3.34799 11.0381C3.32599 11.2031 3.30699 11.3571 3.28499 11.5111C3.25766 11.7164 3.23099 11.9217 3.20499 12.1271C3.20499 12.1511 3.19499 12.1611 3.16999 12.1611H2.56199L2.54199 12.1551C2.55399 12.0551 2.56599 11.9611 2.57899 11.8641C2.62299 11.5241 2.66766 11.1834 2.71299 10.8421C2.76499 10.4531 2.80599 10.0621 2.87199 9.67506C2.941 9.3302 3.10798 9.01255 3.35291 8.76017C3.59785 8.50779 3.91035 8.33137 4.25299 8.25206C4.44175 8.20402 4.63832 8.19494 4.83071 8.22537C5.0231 8.2558 5.20727 8.32511 5.37199 8.42906C5.53655 8.53075 5.67518 8.66935 5.77689 8.83389C5.8786 8.99844 5.94061 9.1844 5.95799 9.37706C5.9882 9.6443 5.95373 9.91488 5.85749 10.166C5.76125 10.4171 5.60606 10.6415 5.40499 10.8201C5.14509 11.0768 4.81029 11.2442 4.44899 11.2981C4.08011 11.3641 3.70009 11.2814 3.39199 11.0681C3.37999 11.0591 3.36799 11.0521 3.34799 11.0391" fill="#3C3A3E"/>
<path d="M3.01807 7.78305L2.35307 8.28305C2.31707 8.22705 2.28607 8.17105 2.25307 8.11805C2.212 8.0502 2.15577 7.99277 2.08881 7.95027C2.02184 7.90776 1.94595 7.88133 1.86707 7.87305C1.79943 7.86665 1.73124 7.87627 1.66801 7.90111C1.60477 7.92595 1.54827 7.96533 1.50307 8.01605C1.46001 8.06028 1.43454 8.11869 1.43141 8.18034C1.42828 8.242 1.44771 8.30268 1.48607 8.35105C1.57607 8.46905 1.67407 8.58005 1.77507 8.68905C1.94007 8.86905 2.11407 9.04205 2.27507 9.22505C2.43181 9.38229 2.53861 9.58232 2.58207 9.80005C2.6231 10.0608 2.57519 10.3278 2.44607 10.558C2.33981 10.7646 2.18503 10.9423 1.99501 11.0759C1.80499 11.2095 1.5854 11.295 1.35507 11.325C1.14192 11.3624 0.923066 11.3508 0.71507 11.291C0.583046 11.2531 0.460929 11.1866 0.357282 11.0965C0.253635 11.0063 0.170966 10.8945 0.11507 10.769C0.0710703 10.679 0.0380703 10.582 -0.00292969 10.485L0.71807 10.098C0.72707 10.119 0.73307 10.135 0.74107 10.151C0.777037 10.2351 0.818113 10.317 0.86407 10.396C0.928788 10.5013 1.03076 10.5784 1.14972 10.6119C1.26867 10.6455 1.39589 10.633 1.50607 10.577C1.57019 10.5478 1.62953 10.509 1.68207 10.462C1.75816 10.402 1.80806 10.3149 1.8213 10.2188C1.83453 10.1228 1.81008 10.0254 1.75307 9.94705C1.6823 9.84633 1.60409 9.75106 1.51907 9.66205C1.31907 9.44305 1.11907 9.23105 0.92507 9.00905C0.790519 8.85895 0.703211 8.67251 0.67407 8.47305C0.641402 8.25511 0.687875 8.03267 0.80507 7.84605C0.929282 7.62202 1.11463 7.43792 1.33949 7.31522C1.56435 7.19252 1.81946 7.13627 2.07507 7.15305C2.22546 7.15872 2.37263 7.19827 2.5056 7.26874C2.63858 7.33921 2.75393 7.43879 2.84307 7.56005C2.90107 7.63305 2.95607 7.70905 3.01507 7.78805" fill="#3C3A3E"/>
<path d="M8.40815 10.3C8.37015 10.583 8.33616 10.852 8.30016 11.12C8.29871 11.1277 8.29576 11.135 8.29146 11.1415C8.28717 11.148 8.28163 11.1536 8.27515 11.158C7.99463 11.3009 7.67551 11.3496 7.36514 11.2968C7.05476 11.244 6.76967 11.0926 6.55216 10.865C6.43646 10.7337 6.34776 10.5809 6.29114 10.4153C6.23452 10.2497 6.21108 10.0746 6.22216 9.89999C6.25137 9.48344 6.4231 9.08965 6.70846 8.7848C6.99383 8.47994 7.37544 8.28262 7.78916 8.22599C8.01773 8.18686 8.25254 8.20775 8.47061 8.28664C8.68868 8.36552 8.88252 8.49968 9.03315 8.67599C9.14253 8.79912 9.22657 8.9426 9.28044 9.09824C9.33432 9.25387 9.35699 9.41859 9.34716 9.58299C9.33716 9.80699 9.30115 10.031 9.27315 10.254C9.23215 10.57 9.19115 10.887 9.15015 11.202C9.14899 11.2145 9.14665 11.2269 9.14315 11.239H8.48616C8.49516 11.166 8.50315 11.095 8.51216 11.024C8.56016 10.659 8.61216 10.295 8.65416 9.92399C8.68644 9.69732 8.65168 9.46615 8.55415 9.25899C8.50522 9.15473 8.42921 9.0655 8.33406 9.0006C8.23891 8.9357 8.12809 8.8975 8.01315 8.88999C7.76378 8.86624 7.51433 8.93446 7.31174 9.0818C7.10915 9.22913 6.9674 9.44543 6.91316 9.68999C6.87325 9.84065 6.88064 9.99993 6.9343 10.1463C6.98796 10.2926 7.08531 10.4189 7.21315 10.508C7.33118 10.586 7.46724 10.6325 7.60834 10.643C7.74944 10.6535 7.89087 10.6277 8.01916 10.568C8.16199 10.509 8.29003 10.4192 8.39416 10.305" fill="#3C3A3E"/>
<path d="M11.1731 8.28918L11.0831 8.97018H10.6711C10.6173 8.97038 10.5649 8.98735 10.5212 9.01871C10.4774 9.05007 10.4446 9.09427 10.4271 9.14518C10.4152 9.18565 10.4071 9.22717 10.4031 9.26918C10.3364 9.79118 10.2678 10.3142 10.1971 10.8382C10.1801 10.9702 10.1631 11.1022 10.1451 11.2382H9.46411C9.47711 11.1382 9.48911 11.0382 9.50111 10.9432C9.54645 10.6045 9.59111 10.2655 9.63511 9.92618C9.67411 9.63318 9.70911 9.33918 9.75511 9.04718C9.79584 8.84674 9.90018 8.6648 10.0526 8.52841C10.205 8.39202 10.3974 8.30847 10.6011 8.29018C10.7901 8.28218 10.9791 8.29018 11.1741 8.29018" fill="#3C3A3E"/>
<path d="M14.8352 11.2391V10.9501L14.7222 11.2391H14.6852L14.5722 10.9501V11.2391H14.5122V10.8931H14.6002L14.7002 11.1551L14.8002 10.8931H14.8872V11.2391H14.8352ZM14.3352 10.9391V11.2391H14.2782V10.9391H14.1702V10.8931H14.4442V10.9391H14.3352Z" fill="#3C3A3E"/>
<path d="M3.93408 7.30016H4.10008L4.05908 7.04316L3.93408 7.30016ZM4.13408 7.46516H3.84908L3.75908 7.64116H3.55908L4.00008 6.81616H4.19308L4.34308 7.64116H4.15708L4.13008 7.46516" fill="#3C3A3E"/>
<path d="M5.13995 6.98219H5.03995L5.00595 7.17219H5.10595C5.13364 7.17327 5.16063 7.16337 5.18105 7.14464C5.20147 7.12591 5.21366 7.09986 5.21495 7.07219C5.21546 7.06686 5.21546 7.06151 5.21495 7.05619C5.21563 7.04717 5.21451 7.03811 5.21164 7.02954C5.20878 7.02097 5.20424 7.01305 5.19828 7.00625C5.19232 6.99945 5.18506 6.99391 5.17694 6.98995C5.16881 6.98599 5.15998 6.98369 5.15095 6.98319L5.13995 6.98219ZM4.89995 6.81719H5.15995C5.19063 6.81412 5.22161 6.81772 5.25077 6.82773C5.27993 6.83775 5.30657 6.85395 5.32889 6.87522C5.35121 6.89649 5.36866 6.92234 5.38007 6.95098C5.39147 6.97963 5.39655 7.0104 5.39495 7.04119C5.39696 7.08111 5.39058 7.12102 5.37621 7.15832C5.36184 7.19563 5.33982 7.22951 5.31155 7.25778C5.28328 7.28605 5.2494 7.30807 5.21209 7.32244C5.17478 7.33681 5.13488 7.34319 5.09495 7.34119H4.97695L4.92295 7.64119H4.75195L4.89995 6.81519" fill="#3C3A3E"/>
<path d="M5.9781 7.29996H6.1471L6.1061 7.04296L5.9781 7.29996ZM6.1781 7.46496H5.8921L5.8001 7.63896H5.6001L6.0411 6.81396H6.2331L6.3831 7.63896H6.2001L6.1731 7.46296" fill="#3C3A3E"/>
<path d="M7.29011 7.61003C7.23183 7.63705 7.16836 7.65105 7.10412 7.65103C7.0561 7.65208 7.00838 7.64317 6.96397 7.62488C6.91956 7.60658 6.87942 7.57929 6.84608 7.54473C6.81273 7.51016 6.7869 7.46906 6.77021 7.42403C6.75353 7.37899 6.74634 7.33098 6.74912 7.28303C6.75119 7.15603 6.8027 7.03484 6.8927 6.94521C6.9827 6.85558 7.10411 6.80458 7.23112 6.80303C7.29163 6.80198 7.35144 6.81608 7.40512 6.84403L7.38012 7.04403C7.35883 7.02182 7.33319 7.00422 7.3048 6.99235C7.27641 6.98048 7.24588 6.97458 7.21512 6.97503C7.13924 6.97787 7.0674 7.00996 7.01465 7.06458C6.9619 7.11919 6.93232 7.1921 6.93212 7.26803C6.93036 7.29479 6.934 7.32163 6.94282 7.34695C6.95165 7.37227 6.96547 7.39556 6.98348 7.41543C7.00148 7.4353 7.0233 7.45135 7.04763 7.46262C7.07196 7.47389 7.09831 7.48015 7.12512 7.48103C7.1942 7.48079 7.26116 7.45717 7.31512 7.41403L7.29211 7.61403" fill="#3C3A3E"/>
<path d="M8.34098 7.30799H7.98298L7.92498 7.63699H7.75098L7.89998 6.81299H8.07198L8.01398 7.13899H8.37298L8.43098 6.81299H8.59998L8.45498 7.63699H8.28198L8.33998 7.30799" fill="#3C3A3E"/>
<path d="M8.97217 7.63919L9.11717 6.81519H9.57317L9.54417 6.98019H9.25917L9.23017 7.14019H9.49217L9.46317 7.30519H9.20017L9.17017 7.47019H9.45517L9.42617 7.63419H8.97217" fill="#3C3A3E"/>
</g>
<defs>
<clipPath id="clip0">
<rect width="16" height="16" fill="white"/>
</clipPath>
</defs>
</svg>
