<svg width="100px" height="100px" viewBox="0 0 100 100" fill="none" xmlns="http://www.w3.org/2000/svg">
<path d="M71.3843 77.6024C67.7564 80.4168 63.6098 82.4889 59.1814 83.7004C54.7529 84.9119 50.1293 85.239 45.5744 84.6632C41.0196 84.0873 36.6227 82.6197 32.6349 80.3441C28.6471 78.0686 25.1464 75.0296 22.3327 71.4008C19.519 67.772 17.4475 63.6244 16.2363 59.1948C15.0251 54.7652 14.6981 50.1404 15.2738 45.5843C15.8495 41.0283 17.3167 36.6303 19.5917 32.6414C21.8667 28.6526 24.9048 25.151 28.5327 22.3366C28.6492 22.2454 28.7668 22.1551 28.8853 22.0658C36.2509 16.4675 45.5345 14.0173 54.7025 15.2521C63.8706 16.4869 72.1757 21.306 77.7985 28.6538C83.4213 36.0015 85.9034 45.2788 84.7012 54.4536C83.4989 63.6283 78.7103 71.9524 71.3843 77.6024" fill="#0078D4"/>
<path d="M49.9604 18.3221C43.7028 18.3221 37.5857 20.1782 32.3826 23.6557C27.1796 27.1332 23.1243 32.0758 20.7296 37.8586C18.3349 43.6414 17.7083 50.0047 18.9291 56.1437C20.1499 62.2827 23.1633 67.9217 27.5881 72.3477C32.0129 76.7736 37.6505 79.7878 43.7879 81.0089C49.9253 82.23 56.2869 81.6033 62.0682 79.208C67.8496 76.8126 72.7909 72.7563 76.2675 67.5519C79.7441 62.3475 81.5997 56.2288 81.5997 49.9696C81.5899 41.5791 78.2533 33.5352 72.322 27.6023C66.3906 21.6693 58.3487 18.3319 49.9604 18.3221V18.3221ZM71.1545 28.9759C68.4399 30.524 65.5025 31.6435 62.4463 32.295C61.3396 28.2595 59.5548 24.4417 57.1683 21.0048C62.4723 22.3301 67.3104 25.0875 71.1545 28.9759V28.9759ZM49.9604 20.1166C51.4591 20.1166 52.9556 20.2291 54.4374 20.4533L54.4074 20.4813C57.0045 23.2359 59.161 27.5221 60.7053 32.6626C53.2875 34.013 45.6849 33.9893 38.2756 32.5927C39.8608 27.4971 42.0154 23.3608 44.5186 20.7031L44.4447 20.6331C46.2633 20.2905 48.1098 20.1175 49.9604 20.1166V20.1166ZM41.7137 21.2856C39.39 24.6141 37.6348 28.3055 36.5196 32.209C33.7477 31.6241 31.1017 30.5517 28.7044 29.0418C32.3026 25.3813 36.7831 22.71 41.7137 21.2856V21.2856ZM28.229 70.3967C30.4709 68.9297 32.9559 67.8731 35.5677 67.2765C36.5768 71.374 38.4727 75.2001 41.1214 78.4847C36.1975 76.947 31.7553 74.1607 28.227 70.3967H28.229ZM54.6102 79.4579C51.0952 80.0121 47.5095 79.9336 44.0221 79.2261L44.184 79.0392C41.1354 76.4085 38.803 72.2451 37.3127 66.8608C45.2956 65.2533 53.5194 65.2607 61.4994 66.8828C59.9891 72.392 57.6098 76.7362 54.5452 79.3799L54.6102 79.4579ZM57.6138 78.8234C60.3238 75.4487 62.2547 71.5166 63.2684 67.3084C66.1423 68.004 68.888 69.1505 71.4032 70.7055C67.6302 74.6163 62.8618 77.4231 57.6118 78.8234H57.6138ZM63.7069 65.56C64.0425 64.0952 64.3172 62.5556 64.537 60.956C63.919 61.1218 63.2864 61.2777 62.6391 61.4236C62.4393 62.7005 62.2176 63.9454 61.9399 65.1323C53.6701 63.4253 45.1391 63.4225 36.8682 65.1243C36.6035 63.9813 36.3688 62.7944 36.175 61.5555C36.156 61.4366 36.142 61.3157 36.1241 61.1968C35.4788 61.0369 34.8535 60.8651 34.2392 60.6842C34.2911 61.0689 34.3391 61.4525 34.402 61.8322C34.6018 63.1201 34.8485 64.354 35.1262 65.546C32.2356 66.2101 29.4913 67.3988 27.0293 69.0529C22.4859 63.607 20.0355 56.7176 20.1192 49.625C20.2028 42.5325 22.8152 35.7028 27.4858 30.3656C30.0902 32.0646 32.9848 33.27 36.0252 33.9215C35.7495 34.9297 35.4928 35.9648 35.262 37.0308C35.1502 37.5454 35.0623 38.0719 34.9624 38.5935C35.5857 38.4216 36.2289 38.2638 36.8832 38.1129C36.9312 37.8811 36.9701 37.6433 37.02 37.4135C37.2511 36.3518 37.5048 35.3213 37.7812 34.3222C41.7258 35.1034 45.7385 35.4897 49.7597 35.4752C53.6002 35.488 57.4331 35.1323 61.2057 34.4131C61.5054 35.5471 61.7661 36.7261 62.0048 37.9241C62.6514 38.0573 63.284 38.2041 63.9027 38.3647C63.622 36.882 63.3034 35.4312 62.9368 34.0364C66.2717 33.3155 69.4678 32.0589 72.4011 30.3157C77.1374 35.7033 79.7689 42.6208 79.8113 49.795C79.8537 56.9692 77.3041 63.9174 72.6318 69.3606C69.8854 67.6084 66.868 66.3228 63.7019 65.556L63.7069 65.56Z" fill="#83B9F9"/>
<path d="M40.8857 55.28H37.7892L35.9293 52.2007C35.7904 51.9669 35.6566 51.7591 35.5297 51.5752C35.4144 51.4072 35.2847 51.2494 35.1422 51.1037C35.023 50.982 34.8846 50.8807 34.7326 50.8039C34.5882 50.7356 34.4299 50.7014 34.2702 50.704H33.545V55.285H30.848V43.3145H35.1192C38.0219 43.3145 39.4733 44.3992 39.4733 46.5686C39.4773 46.9622 39.4124 47.3534 39.2815 47.7246C39.1567 48.0717 38.9732 48.3948 38.7391 48.6798C38.499 48.9694 38.2128 49.2175 37.8921 49.4141C37.5479 49.6257 37.1761 49.7884 36.7873 49.8977V49.9317C36.9741 49.9915 37.1491 50.0831 37.3047 50.2024C37.4782 50.334 37.64 50.4805 37.7882 50.6401C37.9472 50.8109 38.0962 50.9907 38.2347 51.1786C38.3765 51.3704 38.5064 51.5583 38.6222 51.7421L40.8857 55.28ZM33.545 45.3337V48.6628H34.7127C35.2246 48.6874 35.7255 48.5078 36.1051 48.1632C36.2782 48.003 36.4153 47.8078 36.5075 47.5906C36.5996 47.3735 36.6446 47.1392 36.6395 46.9033C36.6395 45.8576 36.0139 45.3347 34.7626 45.3347L33.545 45.3337Z" fill="white"/>
<path d="M49.1763 55.28H42.0024V43.3145H48.9006V45.5125H44.6974V48.1712H48.609V50.3563H44.6974V53.0939H49.1763V55.28Z" fill="white"/>
<path d="M50.5437 54.8203V52.1506C51.0109 52.5465 51.545 52.8558 52.1209 53.0638C52.6719 53.2627 53.2532 53.3641 53.839 53.3636C54.1379 53.3682 54.4363 53.3373 54.728 53.2717C54.9515 53.2223 55.1655 53.1366 55.3613 53.0179C55.5177 52.9228 55.6484 52.7907 55.7418 52.6332C55.8246 52.4874 55.8677 52.3223 55.8667 52.1546C55.8693 51.9297 55.7992 51.71 55.6669 51.5282C55.516 51.328 55.331 51.1558 55.1205 51.0196C54.8594 50.8471 54.5844 50.6964 54.2985 50.569C53.9821 50.4245 53.6402 50.2769 53.2726 50.1264C52.47 49.8287 51.7526 49.3388 51.183 48.6996C50.7196 48.124 50.476 47.4022 50.4958 46.6634C50.4802 46.1048 50.6096 45.5516 50.8713 45.0578C51.1181 44.6129 51.4682 44.2339 51.8922 43.9528C52.3495 43.6521 52.857 43.4355 53.3905 43.3133C53.9799 43.1764 54.5834 43.1094 55.1885 43.1135C55.7426 43.1083 56.2963 43.1461 56.8446 43.2264C57.299 43.2944 57.745 43.4103 58.1751 43.5721V46.0699C57.9683 45.9279 57.749 45.8052 57.5198 45.7032C57.2833 45.5973 57.0392 45.5091 56.7896 45.4395C56.5447 45.3714 56.2954 45.32 56.0435 45.2856C55.8098 45.2534 55.5742 45.2368 55.3383 45.2357C55.0578 45.2327 54.7779 45.2622 54.5042 45.3236C54.2812 45.3707 54.0673 45.4537 53.8709 45.5694C53.7106 45.6639 53.574 45.7937 53.4714 45.949C53.376 46.098 53.3267 46.2718 53.3296 46.4486C53.3264 46.6398 53.3818 46.8274 53.4884 46.9861C53.6106 47.1618 53.7628 47.3147 53.9379 47.4377C54.1618 47.5968 54.3991 47.7362 54.6471 47.8544C54.9248 47.9916 55.2391 48.1321 55.59 48.276C56.0337 48.4588 56.4643 48.6721 56.8785 48.9145C57.2385 49.1234 57.5684 49.3802 57.8594 49.6778C58.1291 49.9577 58.3415 50.2876 58.4847 50.6489C58.6359 51.0559 58.7091 51.4877 58.7005 51.9218C58.7202 52.5055 58.5898 53.0845 58.3219 53.6034C58.0749 54.0497 57.7206 54.4274 57.2911 54.7024C56.8277 54.9935 56.3147 55.1967 55.7778 55.3019C55.1787 55.428 54.568 55.4906 53.9558 55.4887C53.3278 55.4906 52.7008 55.4347 52.083 55.3219C51.5486 55.229 51.0302 55.0601 50.5437 54.8203V54.8203Z" fill="white"/>
<path d="M69.0708 45.5096H65.6587V55.2801H62.9557V45.5096H59.5596V43.3115H69.0688L69.0708 45.5096Z" fill="white"/>
</svg>
