<svg width="16" height="16" viewBox="0 0 16 16" fill="none" xmlns="http://www.w3.org/2000/svg">
<path d="M7.99989 5.0289C5.27589 5.0289 3.06689 4.2599 3.06689 3.2439V12.7559C3.06689 13.7339 5.23689 14.5259 7.93089 14.5419H7.99989C10.7239 14.5419 12.9329 13.7719 12.9329 12.7559V3.2439C12.9329 4.2359 10.7239 5.0289 7.99989 5.0289Z" fill="url(#paint0_linear)"/>
<path d="M12.9329 3.24401C12.9329 4.23601 10.7239 5.02901 7.99989 5.02901C5.27589 5.02901 3.06689 4.26001 3.06689 3.24401C3.06689 2.22801 5.27589 1.45801 7.99989 1.45801C10.7239 1.45801 12.9329 2.22801 12.9329 3.24401Z" fill="#E8E8E8"/>
<path d="M11.7869 3.10006C11.7869 3.73206 10.0869 4.23906 7.99989 4.23906C5.91289 4.23906 4.21289 3.72906 4.21289 3.10006C4.21289 2.47106 5.91389 1.96606 7.99989 1.96606C10.0859 1.96606 11.7869 2.47406 11.7869 3.09706" fill="#50E6FF"/>
<path d="M7.99986 3.38208C6.98412 3.35643 5.97148 3.50491 5.00586 3.82108C5.9724 4.13131 6.98538 4.27172 7.99986 4.23608C9.01641 4.26609 10.0302 4.11507 10.9939 3.79008C10.0255 3.48849 9.01361 3.3506 7.99986 3.38208Z" fill="#198AB3"/>
<path d="M3.06689 10.4199H6.85589C6.88105 10.4242 6.90385 10.4373 6.92017 10.457C6.93649 10.4766 6.94526 10.5014 6.94489 10.5269V11.6999C6.94498 11.7196 6.95085 11.7388 6.96178 11.7551C6.97271 11.7714 6.98822 11.7842 7.00636 11.7918C7.02449 11.7993 7.04446 11.8014 7.06377 11.7977C7.08307 11.794 7.10086 11.7847 7.11489 11.7709L9.0999 9.79991C9.12793 9.77493 9.14493 9.73987 9.14718 9.70239C9.14943 9.6649 9.13674 9.62806 9.1119 9.59991L9.0999 9.58991L7.13289 7.63591C7.12224 7.61412 7.10403 7.59695 7.08166 7.58759C7.05929 7.57822 7.03428 7.57731 7.01128 7.58502C6.98829 7.59272 6.96888 7.60852 6.95667 7.62947C6.94445 7.65043 6.94027 7.6751 6.94489 7.69891V8.87591C6.94504 8.90063 6.93603 8.92453 6.9196 8.943C6.90316 8.96146 6.88047 8.97319 6.85589 8.97591H3.06689" fill="#BEDCF4"/>
<defs>
<linearGradient id="paint0_linear" x1="3.06689" y1="8.8929" x2="12.9329" y2="8.8929" gradientUnits="userSpaceOnUse">
<stop stop-color="#005BA1"/>
<stop offset="0.07" stop-color="#0060A9"/>
<stop offset="0.36" stop-color="#0071C8"/>
<stop offset="0.52" stop-color="#0078D4"/>
<stop offset="0.64" stop-color="#0074CD"/>
<stop offset="0.82" stop-color="#006ABB"/>
<stop offset="1" stop-color="#005BA1"/>
</linearGradient>
</defs>
</svg>
