<svg width="18" height="18" viewBox="0 0 18 18" fill="none" xmlns="http://www.w3.org/2000/svg" class="siteBrandIcon-152"><path d="M13.27 11.404c-.428.034-.855.086-1.283.137-.53.069-1.061.154-1.557.308-.12.034-.24.086-.343.137a.372.372 0 00-.137.086c-.017.017-.034.034-.051.034.086.034.188.068.308.103.496.12 1.027.188 1.557.273.53.086 1.078.171 1.609.291.274.052.547.12.821.206.137.051.274.085.428.154.41-.53.753-1.113 1.01-1.729H13.27z" fill="url(#paint0_linear)"></path><path d="M13.27 11.404c-.428.034-.855.086-1.283.137-.53.069-1.061.154-1.557.308-.12.034-.24.086-.343.137a.372.372 0 00-.137.086c-.017.017-.034.034-.051.034.086.034.188.068.308.103.496.12 1.027.188 1.557.273.53.086 1.078.171 1.609.291.274.052.547.12.821.206.137.051.274.085.428.154.41-.53.753-1.113 1.01-1.729H13.27z" fill="url(#paint1_radial)"></path><path d="M14.554 14.04a1.931 1.931 0 00-.497-.257c-.051-.017-.085-.034-.137-.051a9.21 9.21 0 00-.735-.24 22.911 22.911 0 00-1.558-.36l-.787-.17c-.274-.069-.53-.12-.804-.205-.137-.052-.274-.086-.428-.189-.017-.017-.034-.034-.068-.034-.017-.017-.052-.034-.069-.051-.051-.052-.102-.103-.12-.206-.017-.051-.017-.12-.017-.137 0-.034 0-.068.017-.102.018-.034.018-.069.035-.086a.237.237 0 01.051-.068.236.236 0 00.051-.069l.052-.051a.358.358 0 01.102-.069.53.53 0 01.223-.102c.137-.052.274-.103.41-.137.548-.137 1.096-.171 1.643-.223.052 0 .12 0 .171-.017a.59.59 0 01-.136-.273l-.702-2.756H9.745a.632.632 0 01-.394-.12.55.55 0 01-.205-.342l-.53-2.121-1.985 7.82a.61.61 0 01-.599.462.583.583 0 01-.428-.188L3.55 11.644l-.804.822a.594.594 0 01-.342.17h-.086a7.572 7.572 0 003.286 2.79c.855-.034 1.711-.086 2.55-.137a64.719 64.719 0 003.182-.274c.497-.051.993-.12 1.472-.205.034 0 .069-.017.086-.017l.77-.154c.24-.069.496-.137.701-.223.103-.034.206-.085.291-.136l.052-.035.017-.017s0-.017-.017-.017c0-.051-.069-.12-.154-.171z" fill="#CCC"></path><path d="M10.43 11.85a2.04 2.04 0 00-.343.136.372.372 0 00-.137.086c-.017.017-.034.034-.05.034.085.034.187.068.307.103.496.12 1.027.188 1.557.273.53.086 1.078.171 1.609.291.274.052.547.12.821.206.137.051.274.085.428.154.41-.53.753-1.113 1.01-1.729H13.27c-.428.034-.855.086-1.283.137-.53.069-1.078.154-1.557.308z" fill="#CCC"></path><path d="M8.633 1a7.53 7.53 0 00-6.965 10.387H2.061l1.062-1.06a.613.613 0 01.427-.189c.171 0 .308.068.428.188l1.711 1.711 2.362-9.189a.61.61 0 01.599-.462c.154 0 .274.034.393.12a.55.55 0 01.206.342l.992 4.039h1.54c.137 0 .274.034.377.12a.666.666 0 01.222.342l.702 2.772h2.926a7.28 7.28 0 00.171-1.626C16.18 4.371 12.81 1 8.633 1z" fill="url(#paint2_linear)"></path><path d="M8.633 1a7.53 7.53 0 00-6.965 10.387H2.061l1.062-1.06a.613.613 0 01.427-.189c.171 0 .308.068.428.188l1.711 1.711 2.362-9.189a.61.61 0 01.599-.462c.154 0 .274.034.393.12a.55.55 0 01.206.342l.992 4.039h1.54c.137 0 .274.034.377.12a.666.666 0 01.222.342l.702 2.772h2.926a7.28 7.28 0 00.171-1.626C16.18 4.371 12.81 1 8.633 1z" fill="url(#paint3_linear)"></path><path d="M6.494 5.28c-.993 0-1.78-.805-1.78-1.78a.153.153 0 00-.154-.154.153.153 0 00-.154.154c0 .992-.804 1.78-1.78 1.78a.153.153 0 00-.154.153c0 .086.069.154.154.154.993 0 1.78.805 1.78 1.78 0 .086.068.154.154.154a.153.153 0 00.154-.154c0-.992.804-1.78 1.78-1.78a.153.153 0 00.154-.154c.017-.068-.069-.154-.154-.154z" fill="url(#paint4_radial)"></path><path d="M9.848 12.089c0-.017-.017-.017 0 0-.017-.017-.017-.017 0 .034v.035s0-.018.017-.018l.017-.017h-.017l-.017-.034z" fill="url(#paint5_linear)"></path><path d="M9.848 12.089c0-.017-.017-.017 0 0-.017-.017-.017-.017 0 .034v.035s0-.018.017-.018l.017-.017h-.017l-.017-.034z" fill="url(#paint6_radial)"></path><path d="M9.848 12.089c0-.017-.017-.017 0 0-.017-.017-.017-.017 0 .034v.035s0-.018.017-.018l.017-.017h-.017l-.017-.034z" fill="url(#paint7_linear)"></path><path d="M9.848 12.089c0-.017-.017-.017 0 0-.017-.017-.017-.017 0 .034v.035s0-.018.017-.018l.017-.017h-.017l-.017-.034z" fill="url(#paint8_radial)"></path><path d="M15.614 14.211c0-.068-.017-.12-.034-.188a.571.571 0 00-.085-.205V13.8c-.017-.034-.034-.069-.052-.086a1.101 1.101 0 00-.136-.154c-.086-.085-.189-.154-.291-.222a2.302 2.302 0 00-.411-.206c-.137-.051-.291-.102-.428-.154a7.208 7.208 0 00-.821-.205c-.548-.12-1.078-.205-1.609-.29-.53-.086-1.06-.155-1.557-.275a3.209 3.209 0 01-.308-.102l-.017.017-.017.017v-.017l-.017-.035s.017 0 .017.018l.017.017h.017c.017-.017.034-.035.051-.035.034-.034.086-.05.137-.085.103-.051.223-.103.342-.137.497-.154 1.027-.24 1.558-.308.427-.051.855-.103 1.283-.137h-.667a.632.632 0 01-.394-.12c-.034-.017-.051-.051-.085-.085-.052 0-.12 0-.172.017-.547.034-1.078.085-1.642.222a1.924 1.924 0 00-.411.137c-.069.034-.137.069-.223.103-.034.017-.068.051-.102.068l-.052.052a.237.237 0 00-.05.068c-.018.017-.035.051-.052.069-.017 0-.017.034-.034.051-.018.034-.018.068-.018.103 0 .034 0 .085.018.136.034.103.085.155.12.206.016.017.05.034.068.051.017.017.034.034.068.034.154.086.291.137.428.189.274.085.548.154.804.205l.788.171c.53.12 1.043.223 1.557.36.256.068.496.154.736.24.05.016.085.033.136.05.189.069.36.171.497.257.085.051.154.12.17.171 0 0 0 .017.018.017.017-.017.017-.017 0 .017V14.23v-.035l-.017.017-.052.035a.925.925 0 01-.29.137 8.426 8.426 0 01-.702.222c-.257.069-.496.12-.77.154-.034 0-.069.017-.086.017-.479.086-.975.154-1.471.206-1.061.12-2.122.205-3.183.273-.856.052-1.694.103-2.55.137-.222.017-.428.017-.65.017-.308.017-.616.017-.924.034-.171 0-.343.018-.514.018h-.017c-.582.017-1.18.017-1.762.017h-.017c-.445.068-.77.41-.753.821.017.41.359.719.77.719a82.1 82.1 0 004.124-.257h.017c.29-.017.565-.051.855-.068.497-.052.993-.103 1.506-.154a52.444 52.444 0 003.235-.445l1.129-.206c.154-.034.325-.068.48-.102.136-.034.29-.069.427-.103.017 0 .017 0 .034-.017.12-.034.223-.069.342-.103.274-.085.548-.17.822-.29a3.71 3.71 0 00.428-.24c.034-.034.068-.051.12-.086l.12-.12a1.17 1.17 0 00.204-.359c.018-.034.018-.085.018-.12v-.068l-.018-.069z" fill="url(#paint9_linear)"></path><defs><linearGradient id="paint0_linear" x1="2.96" y1="1.967" x2="15.202" y2="14.208" gradientUnits="userSpaceOnUse"><stop offset=".4" stop-color="#4B749D"></stop><stop offset="1" stop-color="#0F467C"></stop></linearGradient><linearGradient id="paint2_linear" x1="2.719" y1="2.208" x2="14.96" y2="14.45" gradientUnits="userSpaceOnUse"><stop offset=".4" stop-color="#4B749D"></stop><stop offset="1" stop-color="#0F467C"></stop></linearGradient><linearGradient id="paint3_linear" x1="8.655" y1="11.96" x2="8.615" y2="3.127" gradientUnits="userSpaceOnUse"><stop stop-color="#50A1EB"></stop><stop offset=".879" stop-color="#077FD3"></stop></linearGradient><linearGradient id="paint5_linear" x1="1.336" y1="3.591" x2="13.578" y2="15.833" gradientUnits="userSpaceOnUse"><stop offset=".4" stop-color="#4B749D"></stop><stop offset="1" stop-color="#0F467C"></stop></linearGradient><linearGradient id="paint7_linear" x1="9.859" y1="-.081" x2="9.859" y2="18.137" gradientUnits="userSpaceOnUse"><stop stop-color="#fff"></stop><stop offset=".557" stop-color="#FBFBFB"></stop><stop offset="1" stop-color="#F2F2F2"></stop></linearGradient><linearGradient id="paint9_linear" x1="8.566" y1="17.14" x2="7.968" y2="12.751" gradientUnits="userSpaceOnUse"><stop offset=".586" stop-color="#50A1EB"></stop><stop offset=".879" stop-color="#077FD3"></stop></linearGradient><radialGradient id="paint1_radial" cx="0" cy="0" r="1" gradientUnits="userSpaceOnUse" gradientTransform="translate(8.634 8.535) scale(8.65611)"><stop stop-color="#2397EC"></stop><stop offset=".228" stop-color="#47A8EF"></stop><stop offset=".436" stop-color="#61B4F1"></stop><stop offset=".559" stop-color="#6BB9F2"></stop><stop offset=".675" stop-color="#68B7F2"></stop><stop offset=".768" stop-color="#5EB3F1"></stop><stop offset=".853" stop-color="#4DABEF"></stop><stop offset=".932" stop-color="#36A0ED"></stop><stop offset="1" stop-color="#1B93EB"></stop></radialGradient><radialGradient id="paint4_radial" cx="0" cy="0" r="1" gradientUnits="userSpaceOnUse" gradientTransform="translate(4.558 5.444) scale(2.09985)"><stop offset=".196" stop-color="#FFD70F"></stop><stop offset=".438" stop-color="#FFCB12"></stop><stop offset=".873" stop-color="#FEAC19"></stop><stop offset="1" stop-color="#FEA11B"></stop></radialGradient><radialGradient id="paint6_radial" cx="0" cy="0" r="1" gradientUnits="userSpaceOnUse" gradientTransform="matrix(8.65598 0 0 8.65633 8.634 8.535)"><stop stop-color="#2397EC"></stop><stop offset=".228" stop-color="#47A8EF"></stop><stop offset=".436" stop-color="#61B4F1"></stop><stop offset=".559" stop-color="#6BB9F2"></stop><stop offset=".675" stop-color="#68B7F2"></stop><stop offset=".768" stop-color="#5EB3F1"></stop><stop offset=".853" stop-color="#4DABEF"></stop><stop offset=".932" stop-color="#36A0ED"></stop><stop offset="1" stop-color="#1B93EB"></stop></radialGradient><radialGradient id="paint8_radial" cx="0" cy="0" r="1" gradientUnits="userSpaceOnUse" gradientTransform="matrix(7.60141 0 0 7.60172 8.311 14.08)"><stop stop-color="#2397EC"></stop><stop offset=".228" stop-color="#47A8EF"></stop><stop offset=".436" stop-color="#61B4F1"></stop><stop offset=".559" stop-color="#6BB9F2"></stop><stop offset=".675" stop-color="#68B7F2"></stop><stop offset=".768" stop-color="#5EB3F1"></stop><stop offset=".853" stop-color="#4DABEF"></stop><stop offset=".932" stop-color="#36A0ED"></stop><stop offset="1" stop-color="#1B93EB"></stop></radialGradient></defs></svg>